<svg width="130" height="74" viewBox="0 0 130 74" fill="none" xmlns="http://www.w3.org/2000/svg">
<g clip-path="url(#clip0_1_2)">
<path d="M14.082 58.793H7.536V0.948997H14.081L14.082 58.793Z" fill="white"/>
<path d="M40.65 0.948997V58.793H34.105V33.43L30.83 58.793H25.73L22.575 33.993V58.793H16.03V0.948997H22.575L28.302 31.359L34.03 0.948997H40.65Z" fill="white"/>
<path d="M54.908 52.236H49.883L49.139 58.793H42.599L49.139 0.948997H55.645L62.19 58.793H55.645L54.908 52.236ZM54.09 45.036L52.377 29.849L50.702 45.032L54.09 45.036Z" fill="white"/>
<path d="M73.961 22.861V8.886C73.976 8.26613 73.7526 7.66412 73.337 7.204C73.1464 6.97563 72.9083 6.79169 72.6391 6.66507C72.37 6.53845 72.0764 6.47222 71.779 6.471C71.4873 6.46969 71.1991 6.53463 70.9362 6.66091C70.6732 6.78719 70.4424 6.97152 70.261 7.2C70.0447 7.42249 69.8748 7.68577 69.7611 7.97453C69.6475 8.26329 69.5923 8.57176 69.599 8.882V50.9C69.5921 51.2103 69.647 51.5188 69.7607 51.8076C69.8744 52.0964 70.0445 52.3597 70.261 52.582C70.4482 52.8014 70.6812 52.977 70.9437 53.0964C71.2062 53.2158 71.4916 53.2761 71.78 53.273C72.0737 53.2739 72.3642 53.2128 72.6327 53.0937C72.9012 52.9746 73.1415 52.8003 73.338 52.582C73.7537 52.122 73.9768 51.5198 73.961 50.9V33.474H71.896V26.227H80.622V50.038C80.6687 52.5875 79.7343 55.0576 78.012 56.938C77.356 57.6786 76.5819 58.3054 75.721 58.793C75.773 58.812 67.84 58.812 67.854 58.793C66.9895 58.3029 66.2098 57.6766 65.545 56.938C63.8445 55.047 62.9255 52.5807 62.974 50.038V9.749C62.9258 7.20633 63.8447 4.74018 65.545 2.849C66.319 1.95515 67.2762 1.23823 68.3516 0.746867C69.4271 0.255505 70.5956 0.00119781 71.778 0.00119781C72.9604 0.00119781 74.1289 0.255505 75.2044 0.746867C76.2798 1.23823 77.237 1.95515 78.011 2.849C79.7332 4.72949 80.6675 7.1995 80.621 9.749V22.861H73.959H73.961Z" fill="white"/>
<path d="M89.113 58.793H82.568V0.948997H89.113V58.793Z" fill="white"/>
<path d="M108.474 0.948997V58.793H101.93L97.605 33.993V58.793H91.06V0.948997H97.605L101.93 27.649V0.948997H108.474Z" fill="white"/>
<path d="M116.967 8.195V26.27H123.473V33.516H116.967V51.547H123.473V58.793H110.422V0.948997H123.473V8.195H116.967Z" fill="white"/>
<path d="M129.66 73.994H0V58.675H129.66V73.994ZM10.884 70.414C10.8851 70.4722 10.8742 70.5301 10.852 70.5839C10.8298 70.6377 10.7968 70.6865 10.755 70.727C10.6692 70.8099 10.5543 70.8558 10.435 70.855C10.3769 70.856 10.3191 70.8452 10.2653 70.8232C10.2115 70.8012 10.1627 70.7685 10.122 70.727C10.0783 70.6875 10.0435 70.6392 10.0199 70.5852C9.99627 70.5313 9.98438 70.4729 9.985 70.414V62.608C9.98945 62.4901 10.0383 62.3782 10.1217 62.2948C10.2052 62.2113 10.3171 62.1625 10.435 62.158C10.4949 62.1575 10.5543 62.1694 10.6093 62.193C10.6644 62.2166 10.714 62.2513 10.755 62.295C10.7967 62.3357 10.8296 62.3844 10.8518 62.4382C10.8739 62.492 10.8849 62.5498 10.884 62.608V65.208H12.254V62.772C12.2519 62.4138 12.1441 62.0642 11.9442 61.7669C11.7442 61.4697 11.461 61.2381 11.13 61.1011C10.799 60.9642 10.435 60.9279 10.0835 60.9969C9.73198 61.0659 9.40865 61.2371 9.154 61.489C8.98361 61.6559 8.84888 61.8557 8.75795 62.0762C8.66702 62.2968 8.62179 62.5335 8.625 62.772V70.258C8.62428 70.6175 8.73039 70.9691 8.92985 71.2681C9.12931 71.5672 9.41314 71.8003 9.7453 71.9378C10.0775 72.0752 10.443 72.1109 10.7955 72.0403C11.1479 71.9696 11.4715 71.7958 11.725 71.541C11.8976 71.3753 12.0344 71.1759 12.127 70.9553C12.2195 70.7346 12.2658 70.4973 12.263 70.258V67.806H10.893L10.884 70.414ZM17.084 61.134V71.88H18.43V68.58H18.654C18.7354 68.5762 18.8162 68.5956 18.887 68.636C18.9552 68.6721 19.0109 68.7278 19.047 68.796C19.0978 68.9005 19.1225 69.0158 19.119 69.132V71.881H20.442V68.748C20.4388 68.5737 20.4255 68.3997 20.402 68.227C20.3801 67.926 20.2522 67.6426 20.041 67.427C20.2025 67.1935 20.327 66.9365 20.41 66.665C20.4731 66.4567 20.5068 66.2406 20.51 66.023V62.858C20.51 62.709 20.51 62.58 20.502 62.474C20.4939 62.2432 20.4562 62.0143 20.39 61.793C20.3231 61.5841 20.1862 61.4047 20.0024 61.285C19.8186 61.1653 19.5991 61.1127 19.381 61.136H17.081L17.084 61.134ZM18.43 62.513H18.73C18.8115 62.5079 18.8927 62.5274 18.963 62.569C19.0441 62.6229 19.1087 62.698 19.1498 62.7862C19.1909 62.8745 19.2069 62.9723 19.196 63.069V66.219C19.2086 66.3159 19.1933 66.4143 19.1521 66.5028C19.1108 66.5913 19.0453 66.6663 18.963 66.719C18.8927 66.7606 18.8115 66.7801 18.73 66.775H18.43V62.513ZM28.03 62.482V61.136H25.348V71.882H28.033V70.536H26.694V67.186H28.033V65.84H26.694V62.482H28.033H28.03ZM35.547 71.882H36.9L35.55 61.136H34.211L32.865 71.882H34.211L34.363 70.663H35.4L35.552 71.882H35.547ZM34.529 69.326L34.874 66.506L35.227 69.326H34.529ZM44.058 61.136H40.928V62.482H41.828V71.882H43.167V62.482H44.067L44.058 61.136ZM50.236 61.136H48.893V71.882H50.239L50.236 61.136ZM57.753 61.136L57.08 66.514L56.415 61.136H55.073L56.419 71.882H57.758L59.1 61.136H57.758H57.753ZM66.616 62.482V61.136H63.934V71.882H66.619V70.536H65.28V67.186H66.619V65.84H65.28V62.482H66.619H66.616ZM79.616 71.882H80.962L79.616 61.136H78.278L76.932 71.882H78.278L78.43 70.663H79.464L79.616 71.882ZM78.6 69.325L78.945 66.505L79.298 69.325H78.598H78.6ZM89.186 65.205V62.769C89.186 62.2872 88.9946 61.8252 88.654 61.4845C88.3133 61.1439 87.8513 60.9525 87.3695 60.9525C86.8877 60.9525 86.4257 61.1439 86.085 61.4845C85.7444 61.8252 85.553 62.2872 85.553 62.769V70.255C85.553 70.7368 85.7444 71.1988 86.085 71.5395C86.4257 71.8801 86.8877 72.0715 87.3695 72.0715C87.8513 72.0715 88.3133 71.8801 88.654 71.5395C88.9946 71.1988 89.186 70.7368 89.186 70.255V65.832H87.391V67.175H87.816V70.412C87.8171 70.4702 87.8062 70.528 87.784 70.5819C87.7618 70.6357 87.7288 70.6844 87.687 70.725C87.6013 70.8082 87.4864 70.8546 87.367 70.854C87.3088 70.855 87.251 70.844 87.1972 70.8218C87.1433 70.7997 87.0946 70.7667 87.054 70.725C87.0103 70.6855 86.9755 70.6372 86.9519 70.5832C86.9283 70.5292 86.9164 70.4709 86.917 70.412V62.606C86.9215 62.4881 86.9703 62.3762 87.0537 62.2927C87.1372 62.2093 87.2491 62.1604 87.367 62.156C87.4269 62.1555 87.4863 62.1674 87.5413 62.191C87.5964 62.2146 87.646 62.2493 87.687 62.293C87.7286 62.3337 87.7615 62.3824 87.7837 62.4362C87.8059 62.49 87.8169 62.5478 87.816 62.606V65.206H89.186V65.205ZM96.703 62.48V61.134H94.017V71.88H96.7V70.534H95.363V67.184H96.7V65.838H95.363V62.48H96.7H96.703ZM103.771 61.134V66.095L102.882 61.134H101.536V71.88H102.882V67.275L103.771 71.883H105.117V61.136L103.771 61.134ZM112.21 70.414C112.211 70.4722 112.2 70.5301 112.178 70.5839C112.156 70.6377 112.123 70.6865 112.081 70.727C111.995 70.8103 111.88 70.8566 111.761 70.856C111.703 70.857 111.645 70.846 111.591 70.8238C111.537 70.8016 111.489 70.7687 111.448 70.727C111.404 70.6875 111.37 70.6392 111.346 70.5852C111.322 70.5313 111.31 70.4729 111.311 70.414V62.608C111.315 62.4901 111.364 62.3782 111.448 62.2948C111.531 62.2113 111.643 62.1625 111.761 62.158C111.821 62.1575 111.88 62.1694 111.935 62.193C111.99 62.2166 112.04 62.2513 112.081 62.295C112.123 62.3357 112.156 62.3844 112.178 62.4382C112.2 62.4921 112.211 62.5498 112.21 62.608V65.208H113.58V62.772C113.58 62.2902 113.389 61.8282 113.048 61.4875C112.707 61.1469 112.245 60.9555 111.763 60.9555C111.282 60.9555 110.82 61.1469 110.479 61.4875C110.138 61.8282 109.947 62.2902 109.947 62.772V70.258C109.947 70.7398 110.138 71.2018 110.479 71.5425C110.82 71.8831 111.282 72.0745 111.763 72.0745C112.245 72.0745 112.707 71.8831 113.048 71.5425C113.389 71.2018 113.58 70.7398 113.58 70.258V67.806H112.21V70.414ZM122.516 61.134H121.17L120.344 65.189L119.518 61.134H118.172L119.663 68.451H119.671V71.881H121.017V68.451H121.025L122.516 61.134Z" fill="white"/>
</g>
<defs>
<clipPath id="clip0_1_2">
<rect width="129.66" height="73.994" fill="white"/>
</clipPath>
</defs>
</svg>
