<svg id="logo_ungrouped_2_" data-name="logo_ungrouped (2)" xmlns="http://www.w3.org/2000/svg" width="129.66" height="73.994" viewBox="0 0 129.66 73.994">
  <g id="Group_31" data-name="Group 31" transform="translate(7.536)">
    <path id="Path_14" data-name="Path 14" d="M61.646,64.784H55.1V6.94h6.545V64.784Z" transform="translate(-55.1 -5.991)" fill="#231f20"/>
    <path id="Path_15" data-name="Path 15" d="M141.82,6.94V64.784h-6.545V39.421L132,64.784h-5.1l-3.155-24.8v24.8H117.2V6.94h6.545l5.727,30.41L135.2,6.94Z" transform="translate(-108.706 -5.991)" fill="#231f20"/>
    <path id="Path_16" data-name="Path 16" d="M323.769,58.227h-5.025L318,64.784H311.46L318,6.94h6.506l6.545,57.844h-6.545Zm-.818-7.2L321.238,35.84l-1.675,15.183Z" transform="translate(-276.397 -5.991)" fill="#231f20"/>
    <path id="Path_17" data-name="Path 17" d="M471.4,22.861V8.886a2.422,2.422,0,0,0-.624-1.682,2.04,2.04,0,0,0-1.558-.733A1.927,1.927,0,0,0,467.7,7.2a2.341,2.341,0,0,0-.662,1.682V50.9a2.336,2.336,0,0,0,.662,1.682,1.969,1.969,0,0,0,1.519.691,2.088,2.088,0,0,0,1.558-.691A2.417,2.417,0,0,0,471.4,50.9V33.474h-2.065V26.227h8.726V50.038a9.946,9.946,0,0,1-2.61,6.9,8.958,8.958,0,0,1-2.291,1.855c.052.019-7.881.019-7.867,0a9.233,9.233,0,0,1-2.309-1.855,10.033,10.033,0,0,1-2.571-6.9V9.749a10.036,10.036,0,0,1,2.571-6.9,8.245,8.245,0,0,1,12.466,0,9.948,9.948,0,0,1,2.61,6.9V22.861h-6.662Z" transform="translate(-404.975 0)" fill="#231f20"/>
    <path id="Path_18" data-name="Path 18" d="M610.235,64.784H603.69V6.94h6.545Z" transform="translate(-528.658 -5.991)" fill="#231f20"/>
    <path id="Path_19" data-name="Path 19" d="M683.194,6.94V64.784h-6.544l-4.325-24.8v24.8H665.78V6.94h6.545l4.325,26.7V6.94Z" transform="translate(-582.256 -5.991)" fill="#231f20"/>
    <path id="Path_20" data-name="Path 20" d="M813.885,14.186V32.261h6.506v7.246h-6.506V57.538h6.506v7.246H807.34V6.94h13.051v7.246Z" transform="translate(-704.454 -5.991)" fill="#231f20"/>
  </g>
  <path id="Path_21" data-name="Path 21" d="M129.66,444.319H0V429H129.66ZM10.884,440.739a.425.425,0,0,1-.129.313.456.456,0,0,1-.32.128.428.428,0,0,1-.313-.128.416.416,0,0,1-.137-.313v-7.806a.468.468,0,0,1,.45-.45.434.434,0,0,1,.32.137.428.428,0,0,1,.129.313v2.6h1.37v-2.436a1.82,1.82,0,0,0-3.1-1.283,1.763,1.763,0,0,0-.529,1.283v7.486a1.814,1.814,0,0,0,3.1,1.283,1.75,1.75,0,0,0,.538-1.283v-2.452h-1.37Zm6.2-9.28v10.746h1.346v-3.3h.224a.429.429,0,0,1,.233.056.384.384,0,0,1,.16.16.719.719,0,0,1,.072.336v2.749h1.323v-3.133a4.472,4.472,0,0,0-.04-.521,1.275,1.275,0,0,0-.361-.8,2.758,2.758,0,0,0,.369-.762,2.333,2.333,0,0,0,.1-.642v-3.165c0-.149,0-.278-.008-.384a2.709,2.709,0,0,0-.112-.681.953.953,0,0,0-1.009-.657h-2.3Zm1.346,1.379h.3a.408.408,0,0,1,.233.056.529.529,0,0,1,.233.5v3.15a.515.515,0,0,1-.233.5.407.407,0,0,1-.233.056h-.3Zm9.6-.031v-1.346H25.348v10.746h2.685v-1.346H26.694v-3.35h1.339v-1.346H26.694v-3.358h1.339Zm7.517,9.4H36.9L35.55,431.461H34.211l-1.346,10.746h1.346l.152-1.219H35.4l.152,1.219Zm-1.018-2.556.345-2.82.353,2.82Zm9.529-8.19H40.928v1.346h.9v9.4h1.339v-9.4h.9Zm6.178,0H48.893v10.746h1.346Zm7.517,0-.673,5.378-.665-5.378H55.073l1.346,10.746h1.339L59.1,431.461H57.758Zm8.863,1.346v-1.346H63.934v10.746h2.685v-1.346H65.28v-3.35h1.339v-1.346H65.28v-3.358h1.339Zm13,9.4h1.346l-1.346-10.746H78.278l-1.346,10.746h1.346l.152-1.219h1.034l.152,1.219ZM78.6,439.65l.345-2.82.353,2.82h-.7Zm10.586-4.12v-2.436a1.816,1.816,0,1,0-3.633,0v7.486a1.816,1.816,0,0,0,3.633,0v-4.423H87.391V437.5h.425v3.237a.425.425,0,0,1-.129.313.456.456,0,0,1-.32.129.427.427,0,0,1-.313-.129.416.416,0,0,1-.137-.313v-7.806a.468.468,0,0,1,.45-.45.434.434,0,0,1,.32.137.429.429,0,0,1,.129.313v2.6h1.37Zm7.517-2.725v-1.346H94.017v10.746H96.7v-1.346H95.363v-3.35H96.7v-1.346H95.363v-3.358H96.7Zm7.068-1.346v4.961l-.889-4.961h-1.346v10.746h1.346V437.6l.889,4.608h1.346V431.461Zm8.439,9.28a.425.425,0,0,1-.129.313.456.456,0,0,1-.32.129.427.427,0,0,1-.313-.129.416.416,0,0,1-.137-.313v-7.806a.468.468,0,0,1,.45-.45.434.434,0,0,1,.32.137.429.429,0,0,1,.129.313v2.6h1.37v-2.436a1.816,1.816,0,1,0-3.633,0v7.486a1.816,1.816,0,0,0,3.633,0v-2.452h-1.37Zm10.306-9.28h-1.346l-.826,4.055-.826-4.055h-1.346l1.491,7.317h.008v3.43h1.346v-3.43h.008Z" transform="translate(0 -370.325)" fill="#231f20"/>
</svg>
